<svg width="32" height="32" viewBox="0 0 32 32" fill="none" xmlns="http://www.w3.org/2000/svg">
<path fill-rule="evenodd" clip-rule="evenodd" d="M11.8331 7.98681C12.5775 6.60407 14.072 5.63623 15.8429 5.63623C17.6138 5.63623 19.1083 6.60407 19.8527 7.98681L15.8429 7.98681H15.8429L11.8331 7.98681ZM22.229 8.7167C22.1771 8.46781 22.1103 8.2242 22.0296 7.98681C21.1697 5.45941 18.7248 3.63623 15.8429 3.63623C12.961 3.63623 10.5161 5.45941 9.65624 7.98681C9.57548 8.2242 9.5087 8.46781 9.45686 8.7167H3.44411C3.12084 8.7167 2.88255 9.01884 2.95787 9.3332L7.2833 27.385C7.33719 27.6099 7.53828 27.7684 7.76954 27.7684H23.9164C24.1476 27.7684 24.3487 27.6098 24.4026 27.385L28.728 9.3332C28.8034 9.01884 28.5651 8.7167 28.2418 8.7167H22.229ZM9.32651 9.98681H4.37668L8.24116 26.1148C8.29505 26.3397 8.49614 26.4983 8.7274 26.4983H22.9585C23.1898 26.4983 23.3909 26.3397 23.4447 26.1148L27.3092 9.98681H11.3265H9.32651Z" fill="white"/>
</svg>
