<svg width="744" height="109" viewBox="0 0 744 109" fill="none" xmlns="http://www.w3.org/2000/svg">
<mask id="path-1-outside-1" maskUnits="userSpaceOnUse" x="0" y="0" width="746" height="109" fill="black">
<rect fill="white" width="746" height="109"/>
<path d="M57.4974 107C46.9678 107 37.4526 104.728 28.9517 100.184C20.5474 95.6395 13.9302 89.4033 9.10019 81.4751C4.36673 73.4503 2 64.4586 2 54.5C2 44.5414 4.36673 35.5981 9.10019 27.6699C13.9302 19.645 20.5474 13.3605 28.9517 8.8163C37.4526 4.2721 46.9678 2 57.4974 2C68.0269 2 77.4938 4.2721 85.8981 8.8163C94.3024 13.3605 100.92 19.645 105.75 27.6699C110.58 35.5981 112.995 44.5414 112.995 54.5C112.995 64.4586 110.58 73.4503 105.75 81.4751C100.92 89.4033 94.3024 95.6395 85.8981 100.184C77.4938 104.728 68.0269 107 57.4974 107ZM57.4974 86.9862C63.4867 86.9862 68.8963 85.6326 73.7264 82.9254C78.5564 80.1215 82.3239 76.2541 85.0287 71.3232C87.8302 66.3923 89.2309 60.7845 89.2309 54.5C89.2309 48.2155 87.8302 42.6077 85.0287 37.6768C82.3239 32.7459 78.5564 28.9268 73.7264 26.2196C68.8963 23.4157 63.4867 22.0138 57.4974 22.0138C51.5081 22.0138 46.0984 23.4157 41.2684 26.2196C36.4383 28.9268 32.6226 32.7459 29.8211 37.6768C27.1163 42.6077 25.7639 48.2155 25.7639 54.5C25.7639 60.7845 27.1163 66.3923 29.8211 71.3232C32.6226 76.2541 36.4383 80.1215 41.2684 82.9254C46.0984 85.6326 51.5081 86.9862 57.4974 86.9862Z"/>
<path d="M207.579 27.2348V105.26H186.134V95.9779C183.139 99.3619 179.565 101.972 175.411 103.809C171.257 105.55 166.765 106.42 161.935 106.42C151.696 106.42 143.581 103.471 137.592 97.5732C131.603 91.6754 128.608 82.9254 128.608 71.3232V27.2348H151.213V67.9876C151.213 80.5566 156.477 86.8412 167.007 86.8412C172.417 86.8412 176.764 85.1008 180.048 81.6202C183.332 78.0428 184.975 72.7735 184.975 65.8122V27.2348H207.579Z"/>
<path d="M250.111 37.5318C252.816 33.761 256.439 30.9088 260.979 28.9751C265.616 27.0414 270.929 26.0746 276.918 26.0746V46.9586C274.407 46.7652 272.716 46.6685 271.847 46.6685C265.374 46.6685 260.303 48.5055 256.632 52.1796C252.961 55.7569 251.126 61.1713 251.126 68.4227V105.26H228.521V27.2348H250.111V37.5318Z"/>
<path d="M423.279 101.489C421.057 103.133 418.304 104.39 415.02 105.26C411.832 106.033 408.451 106.42 404.877 106.42C395.603 106.42 388.406 104.051 383.286 99.3135C378.263 94.576 375.751 87.6146 375.751 78.4296V46.3785H363.725V28.9751H375.751V9.97652H398.356V28.9751H417.773V46.3785H398.356V78.1395C398.356 81.4268 399.177 83.9889 400.819 85.826C402.558 87.5663 404.973 88.4365 408.065 88.4365C411.639 88.4365 414.682 87.4696 417.193 85.5359L423.279 101.489Z"/>
<path d="M509.926 66.5373C509.926 66.8273 509.781 68.8577 509.491 72.6284H450.516C451.579 77.4627 454.09 81.2818 458.051 84.0856C462.012 86.8895 466.938 88.2914 472.831 88.2914C476.888 88.2914 480.463 87.7113 483.554 86.5511C486.742 85.2942 489.688 83.3605 492.393 80.75L504.42 93.8025C497.078 102.214 486.355 106.42 472.251 106.42C463.461 106.42 455.684 104.728 448.922 101.344C442.16 97.8633 436.944 93.0773 433.273 86.9862C429.602 80.895 427.767 73.982 427.767 66.2472C427.767 58.6091 429.554 51.7445 433.128 45.6533C436.799 39.4655 441.774 34.6796 448.053 31.2956C454.429 27.8149 461.529 26.0746 469.353 26.0746C476.985 26.0746 483.892 27.7182 490.074 31.0055C496.257 34.2928 501.087 39.0304 504.565 45.2182C508.139 51.3094 509.926 58.4157 509.926 66.5373ZM469.498 43.1878C464.379 43.1878 460.08 44.6381 456.602 47.5387C453.124 50.4392 450.999 54.4033 450.226 59.4309H488.625C487.853 54.5 485.727 50.5843 482.25 47.6837C478.772 44.6865 474.522 43.1878 469.498 43.1878Z"/>
<path d="M554.296 26.0746C566.372 26.0746 575.645 28.9751 582.118 34.7762C588.59 40.4807 591.826 49.134 591.826 60.7362V105.26H570.67V95.5428C566.42 102.794 558.499 106.42 546.906 106.42C540.917 106.42 535.701 105.405 531.257 103.374C526.91 101.344 523.577 98.5401 521.259 94.9627C518.94 91.3854 517.781 87.3246 517.781 82.7804C517.781 75.529 520.486 69.8246 525.896 65.6671C531.402 61.5097 539.855 59.4309 551.254 59.4309H569.221C569.221 54.5 567.724 50.7293 564.729 48.1188C561.735 45.4116 557.243 44.058 551.254 44.058C547.1 44.058 542.994 44.7348 538.937 46.0884C534.976 47.3453 531.595 49.0856 528.794 51.3094L520.679 35.5014C524.93 32.5041 530.001 30.1837 535.894 28.5401C541.883 26.8964 548.017 26.0746 554.296 26.0746ZM552.558 91.192C556.422 91.192 559.851 90.3218 562.846 88.5815C565.84 86.7445 567.966 84.0856 569.221 80.605V72.6284H553.717C544.443 72.6284 539.806 75.674 539.806 81.7652C539.806 84.6657 540.917 86.9862 543.139 88.7265C545.457 90.3702 548.597 91.192 552.558 91.192Z"/>
<path d="M712.122 26.0746C721.878 26.0746 729.606 28.9751 735.306 34.7762C741.102 40.4807 744 49.0856 744 60.5912V105.26H721.395V64.0718C721.395 57.884 720.091 53.2914 717.483 50.2942C714.971 47.2003 711.349 45.6533 706.615 45.6533C701.302 45.6533 697.1 47.3936 694.009 50.8743C690.918 54.2583 689.372 59.3343 689.372 66.1022V105.26H666.767V64.0718C666.767 51.7928 661.841 45.6533 651.987 45.6533C646.771 45.6533 642.617 47.3936 639.526 50.8743C636.435 54.2583 634.889 59.3343 634.889 66.1022V105.26H612.284V27.2348H633.875V36.2265C636.773 32.9392 640.299 30.4254 644.453 28.6851C648.703 26.9448 653.34 26.0746 658.363 26.0746C663.869 26.0746 668.844 27.1865 673.288 29.4102C677.732 31.5373 681.306 34.6796 684.011 38.837C687.199 34.7762 691.208 31.634 696.038 29.4102C700.964 27.1865 706.326 26.0746 712.122 26.0746Z"/>
</mask>
<path d="M57.4974 107C46.9678 107 37.4526 104.728 28.9517 100.184C20.5474 95.6395 13.9302 89.4033 9.10019 81.4751C4.36673 73.4503 2 64.4586 2 54.5C2 44.5414 4.36673 35.5981 9.10019 27.6699C13.9302 19.645 20.5474 13.3605 28.9517 8.8163C37.4526 4.2721 46.9678 2 57.4974 2C68.0269 2 77.4938 4.2721 85.8981 8.8163C94.3024 13.3605 100.92 19.645 105.75 27.6699C110.58 35.5981 112.995 44.5414 112.995 54.5C112.995 64.4586 110.58 73.4503 105.75 81.4751C100.92 89.4033 94.3024 95.6395 85.8981 100.184C77.4938 104.728 68.0269 107 57.4974 107ZM57.4974 86.9862C63.4867 86.9862 68.8963 85.6326 73.7264 82.9254C78.5564 80.1215 82.3239 76.2541 85.0287 71.3232C87.8302 66.3923 89.2309 60.7845 89.2309 54.5C89.2309 48.2155 87.8302 42.6077 85.0287 37.6768C82.3239 32.7459 78.5564 28.9268 73.7264 26.2196C68.8963 23.4157 63.4867 22.0138 57.4974 22.0138C51.5081 22.0138 46.0984 23.4157 41.2684 26.2196C36.4383 28.9268 32.6226 32.7459 29.8211 37.6768C27.1163 42.6077 25.7639 48.2155 25.7639 54.5C25.7639 60.7845 27.1163 66.3923 29.8211 71.3232C32.6226 76.2541 36.4383 80.1215 41.2684 82.9254C46.0984 85.6326 51.5081 86.9862 57.4974 86.9862Z" stroke="#FFF2E5" stroke-width="4" mask="url(#path-1-outside-1)"/>
<path d="M207.579 27.2348V105.26H186.134V95.9779C183.139 99.3619 179.565 101.972 175.411 103.809C171.257 105.55 166.765 106.42 161.935 106.42C151.696 106.42 143.581 103.471 137.592 97.5732C131.603 91.6754 128.608 82.9254 128.608 71.3232V27.2348H151.213V67.9876C151.213 80.5566 156.477 86.8412 167.007 86.8412C172.417 86.8412 176.764 85.1008 180.048 81.6202C183.332 78.0428 184.975 72.7735 184.975 65.8122V27.2348H207.579Z" stroke="#FFF2E5" stroke-width="4" mask="url(#path-1-outside-1)"/>
<path d="M250.111 37.5318C252.816 33.761 256.439 30.9088 260.979 28.9751C265.616 27.0414 270.929 26.0746 276.918 26.0746V46.9586C274.407 46.7652 272.716 46.6685 271.847 46.6685C265.374 46.6685 260.303 48.5055 256.632 52.1796C252.961 55.7569 251.126 61.1713 251.126 68.4227V105.26H228.521V27.2348H250.111V37.5318Z" stroke="#FFF2E5" stroke-width="4" mask="url(#path-1-outside-1)"/>
<path d="M423.279 101.489C421.057 103.133 418.304 104.39 415.02 105.26C411.832 106.033 408.451 106.42 404.877 106.42C395.603 106.42 388.406 104.051 383.286 99.3135C378.263 94.576 375.751 87.6146 375.751 78.4296V46.3785H363.725V28.9751H375.751V9.97652H398.356V28.9751H417.773V46.3785H398.356V78.1395C398.356 81.4268 399.177 83.9889 400.819 85.826C402.558 87.5663 404.973 88.4365 408.065 88.4365C411.639 88.4365 414.682 87.4696 417.193 85.5359L423.279 101.489Z" stroke="#FFF2E5" stroke-width="4" mask="url(#path-1-outside-1)"/>
<path d="M509.926 66.5373C509.926 66.8273 509.781 68.8577 509.491 72.6284H450.516C451.579 77.4627 454.09 81.2818 458.051 84.0856C462.012 86.8895 466.938 88.2914 472.831 88.2914C476.888 88.2914 480.463 87.7113 483.554 86.5511C486.742 85.2942 489.688 83.3605 492.393 80.75L504.42 93.8025C497.078 102.214 486.355 106.42 472.251 106.42C463.461 106.42 455.684 104.728 448.922 101.344C442.16 97.8633 436.944 93.0773 433.273 86.9862C429.602 80.895 427.767 73.982 427.767 66.2472C427.767 58.6091 429.554 51.7445 433.128 45.6533C436.799 39.4655 441.774 34.6796 448.053 31.2956C454.429 27.8149 461.529 26.0746 469.353 26.0746C476.985 26.0746 483.892 27.7182 490.074 31.0055C496.257 34.2928 501.087 39.0304 504.565 45.2182C508.139 51.3094 509.926 58.4157 509.926 66.5373ZM469.498 43.1878C464.379 43.1878 460.08 44.6381 456.602 47.5387C453.124 50.4392 450.999 54.4033 450.226 59.4309H488.625C487.853 54.5 485.727 50.5843 482.25 47.6837C478.772 44.6865 474.522 43.1878 469.498 43.1878Z" stroke="#FFF2E5" stroke-width="4" mask="url(#path-1-outside-1)"/>
<path d="M554.296 26.0746C566.372 26.0746 575.645 28.9751 582.118 34.7762C588.59 40.4807 591.826 49.134 591.826 60.7362V105.26H570.67V95.5428C566.42 102.794 558.499 106.42 546.906 106.42C540.917 106.42 535.701 105.405 531.257 103.374C526.91 101.344 523.577 98.5401 521.259 94.9627C518.94 91.3854 517.781 87.3246 517.781 82.7804C517.781 75.529 520.486 69.8246 525.896 65.6671C531.402 61.5097 539.855 59.4309 551.254 59.4309H569.221C569.221 54.5 567.724 50.7293 564.729 48.1188C561.735 45.4116 557.243 44.058 551.254 44.058C547.1 44.058 542.994 44.7348 538.937 46.0884C534.976 47.3453 531.595 49.0856 528.794 51.3094L520.679 35.5014C524.93 32.5041 530.001 30.1837 535.894 28.5401C541.883 26.8964 548.017 26.0746 554.296 26.0746ZM552.558 91.192C556.422 91.192 559.851 90.3218 562.846 88.5815C565.84 86.7445 567.966 84.0856 569.221 80.605V72.6284H553.717C544.443 72.6284 539.806 75.674 539.806 81.7652C539.806 84.6657 540.917 86.9862 543.139 88.7265C545.457 90.3702 548.597 91.192 552.558 91.192Z" stroke="#FFF2E5" stroke-width="4" mask="url(#path-1-outside-1)"/>
<path d="M712.122 26.0746C721.878 26.0746 729.606 28.9751 735.306 34.7762C741.102 40.4807 744 49.0856 744 60.5912V105.26H721.395V64.0718C721.395 57.884 720.091 53.2914 717.483 50.2942C714.971 47.2003 711.349 45.6533 706.615 45.6533C701.302 45.6533 697.1 47.3936 694.009 50.8743C690.918 54.2583 689.372 59.3343 689.372 66.1022V105.26H666.767V64.0718C666.767 51.7928 661.841 45.6533 651.987 45.6533C646.771 45.6533 642.617 47.3936 639.526 50.8743C636.435 54.2583 634.889 59.3343 634.889 66.1022V105.26H612.284V27.2348H633.875V36.2265C636.773 32.9392 640.299 30.4254 644.453 28.6851C648.703 26.9448 653.34 26.0746 658.363 26.0746C663.869 26.0746 668.844 27.1865 673.288 29.4102C677.732 31.5373 681.306 34.6796 684.011 38.837C687.199 34.7762 691.208 31.634 696.038 29.4102C700.964 27.1865 706.326 26.0746 712.122 26.0746Z" stroke="#FFF2E5" stroke-width="4" mask="url(#path-1-outside-1)"/>
</svg>
